<?xml version="1.0" encoding="utf-8"?>
<!-- Generator: Adobe Illustrator 21.0.0, SVG Export Plug-In . SVG Version: 6.00 Build 0)  -->
<svg version="1.1" id="Layer_1" xmlns="http://www.w3.org/2000/svg" xmlns:xlink="http://www.w3.org/1999/xlink" x="0px" y="0px"
	 viewBox="0 0 24 24" style="enable-background:new 0 0 24 24;" xml:space="preserve">
<style type="text/css">
	.st0{fill:#FFFFFF;}
</style>
<g id="XMLID_1_">
	<g>
		<path class="st0" d="M13,13.2c-1,2-3.1,2-3.1-0.1c0-0.8,0.3-1.8,0.7-2.6c1-1.9,3.1-1.6,3.1,0.1C13.7,11.3,13.4,12.4,13,13.2z"/>
		<path class="st0" d="M12.3,8.1c-2,0-3.7,2.2-3.7,4.8c0,1.7,0.9,2.8,2.4,2.8c1.3,0,1.9-0.7,2.4-1.4C13,17.2,19,15.9,19,10.8
			c0-3.3-2.6-5.6-6.3-5.6c-5,0-7.7,3.2-7.7,7.1c0,3.7,2.5,6.5,7,6.5c2.5,0,4.1-0.7,5.1-1.3l-0.7-1c-1,0.6-2.2,1.1-4.3,1.1
			c-3.4,0-5.7-2.2-5.7-5.5c0-5.7,6.4-6.8,9.2-5.1c2.6,1.6,2.5,5.6,0.6,7.1c-1,0.8-2.2,0.8-1.8-0.8c0,0,1.2-4.5,1.4-5h-1.4l-0.3,0.9
			C13.9,8.6,13.2,8.1,12.3,8.1z M12,0c6.6,0,12,5.4,12,12s-5.4,12-12,12S0,18.6,0,12S5.4,0,12,0z"/>
	</g>
	<g>
	</g>
</g>
</svg>
