<?xml version="1.0" encoding="utf-8"?>
<!-- Generator: Adobe Illustrator 21.0.0, SVG Export Plug-In . SVG Version: 6.00 Build 0)  -->
<svg version="1.1" id="Layer_1" xmlns="http://www.w3.org/2000/svg" xmlns:xlink="http://www.w3.org/1999/xlink" x="0px" y="0px"
	 viewBox="0 0 24 24" style="enable-background:new 0 0 24 24;" xml:space="preserve">
<style type="text/css">
	.st0{fill:#FFFFFF;}
</style>
<title>GitHub icon</title>
<g id="XMLID_1_">
	<g>
		<path class="st0" d="M0,12.3c0-6.6,5.4-12,12-12s12,5.4,12,12c0,5.3-3.4,9.8-8.2,11.4c-0.6,0.1-0.8-0.3-0.8-0.6c0-0.4,0-1.7,0-3.3
			c0-1.1-0.4-1.9-0.8-2.2c2.7-0.3,5.5-1.3,5.5-5.9c0-1.3-0.5-2.4-1.2-3.2c0.1-0.3,0.5-1.5-0.1-3.2c0,0-1-0.3-3.3,1.2
			c-1-0.3-2-0.4-3-0.4s-2,0.1-3,0.4C6.7,4.9,5.7,5.3,5.7,5.3C5,6.9,5.4,8.1,5.6,8.4c-0.8,0.8-1.2,1.9-1.2,3.2c0,4.6,2.8,5.6,5.5,5.9
			c-0.3,0.3-0.7,0.8-0.8,1.6c-0.7,0.3-2.4,0.8-3.5-1c0,0-0.6-1.1-1.8-1.2c0,0-1.2,0-0.1,0.7c0,0,0.8,0.4,1.3,1.8c0,0,0.7,2.3,4,1.6
			c0,1,0,1.8,0,2c0,0.3-0.2,0.7-0.8,0.6C3.4,22.1,0,17.6,0,12.3z"/>
	</g>
	<g>
	</g>
</g>
</svg>
