<?xml version="1.0" encoding="utf-8"?>
<!-- Generator: Adobe Illustrator 21.0.0, SVG Export Plug-In . SVG Version: 6.00 Build 0)  -->
<svg version="1.1" id="Layer_1" xmlns:serif="http://www.serif.com/"
	 xmlns="http://www.w3.org/2000/svg" xmlns:xlink="http://www.w3.org/1999/xlink" x="0px" y="0px" viewBox="0 0 768 768"
	 style="enable-background:new 0 0 768 768;" xml:space="preserve">
<style type="text/css">
	.st0{fill:#FFFFFF;}
</style>
<g id="XMLID_1_">
	<g>
		<path class="st0" d="M768,384c0,211.9-172.1,384-384,384S0,595.9,0,384S172.1,0,384,0S768,172.1,768,384z M623.4,599.8v-172
			c0-92.1-49.2-135-114.8-135c-52.9,0-76.6,29.1-89.8,49.5v-42.5h-99.7c1.3,28.1,0,299.9,0,299.9h99.7V432.3c0-9,0.6-17.9,3.3-24.3
			c7.2-17.9,23.6-36.5,51.2-36.5c36,0,50.5,27.5,50.5,67.8v160.5H623.4z M263.9,599.8V299.9h-99.7v299.9H263.9z M214.1,259
			c34.8,0,56.4-23,56.4-51.8c-0.6-29.4-21.6-51.8-55.7-51.8s-56.4,22.4-56.4,51.8c0,28.8,21.6,51.8,55.1,51.8H214.1z"/>
	</g>
</g>
</svg>
